<?xml version="1.0" encoding="UTF-8" standalone="no"?><!DOCTYPE svg PUBLIC "-//W3C//DTD SVG 1.1//EN" "http://www.w3.org/Graphics/SVG/1.1/DTD/svg11.dtd"><svg width="5709" height="4784" viewBox="0 0 5709 4784" version="1.1" xmlns="http://www.w3.org/2000/svg" xmlns:xlink="http://www.w3.org/1999/xlink" xml:space="preserve" xmlns:serif="http://www.serif.com/" style="fill-rule:evenodd;clip-rule:evenodd;stroke-linejoin:round;stroke-miterlimit:2;"><g id="Background"><path d="M8.362,0l5699.966,0c5.841,15.193 0,15.855 0,203.471l-0,4579.483c-8.341,7.057 -10.087,0 -136.571,0l-5571.757,0c-5.18,-9.619 0,-10.472 0,-136.571l0,-4646.383c0.733,-2.689 7.628,2.689 8.362,0Z" style="fill:#fdfcfc;"/><path d="M2655.851,2720.753c0.515,-6.894 3.143,-7.926 -2.249,-11.762c-262.778,-186.974 -531.126,-614.084 -524.461,-1072.865c14.161,-974.826 1066.982,-1138.744 1406.202,-439.57c47.431,97.761 93.428,262.696 71.869,280.843c-213.337,179.578 -396.705,211.162 -397.58,225.812c-0.483,8.092 5.657,4.826 98.523,-23.678c275.346,-84.514 276.747,-149.554 399.983,-224.556c313.487,-190.791 459.602,134.657 774.757,-94.576c164.993,-120.01 265.416,-341.135 787.52,-279.169c38.485,4.568 137.565,21.666 137.73,22.018c3.705,7.922 -2.352,5.995 -25.299,15.809c-202.334,86.533 -213.215,199.052 -322.302,328.929c-27.826,33.129 -31.724,29.947 -63.048,28.674c-239.373,-9.726 -365.239,94.961 -495.539,133.356c-300.34,88.5 -415.263,-26.245 -619.053,-58.964c-81.446,-13.076 -273.868,12.777 -191.526,15.297c52.385,1.603 280.937,32.165 391.065,137.603c169.55,162.329 194.734,132.614 368.319,168.939c177.339,37.111 279.911,173.993 291.477,197.789c9.204,18.938 -36.81,-5.819 -84.455,-12.712c-111.206,-16.089 -206.636,24.155 -223.649,27.689c-267.704,55.613 -422.822,-145.691 -498.85,-239.61c-18.368,-22.69 -141.38,-174.648 -287.088,-225.256c-15.884,-5.517 -7.819,7.743 -11.266,71.059c-38.206,701.876 -522.327,1010.436 -522.861,1020.356c-0.757,14.078 27.371,-6.955 76.211,-35.421c235.362,-137.183 341.452,-342.777 352.537,-346.257c8.165,-2.563 47.111,94.293 56.664,130.327c7.274,27.439 -80.697,94.21 -80.125,106.323c0.554,11.728 6.514,6.385 39.811,17.193c120.694,39.173 330.112,146.821 471.063,360.211c15.362,23.257 -11.101,19.026 -92.484,61.632c-736.171,385.406 -998.935,1110.706 -1015.987,1142.603c-12.983,24.286 7.609,-23.568 -161.905,-303.778c-304.58,-503.476 -690.256,-724.687 -765.497,-767.843c-210.146,-120.533 -256.452,-99.765 -233.013,-134.886c179.801,-269.418 388.475,-332.671 488.813,-368.359c18.845,-6.703 -37.077,-48.484 -65.423,-86.647c-6.029,-8.117 -26.462,-15.842 37.528,-142.796c12.115,-24.036 19.03,-8.876 24.932,0.888c22.964,37.989 150.719,249.333 408.657,375.354Z" style="fill:#0000FF;"/><path d="M1779.734,439.182c-9.617,-0.267 -9.637,-0.268 -108.849,51.134c-424.948,220.165 -664.21,592.398 -665.294,592.627c-15.792,3.34 3.527,-26.132 38.196,-88.685c38.38,-69.251 231.157,-417.086 715.75,-683.524c850.778,-467.774 1613.729,-214.977 1765.903,-167.158c103.432,32.502 319.196,138.046 322.836,144.169c13.161,22.14 -10.764,1.972 -104.403,-35.689c-878.428,-353.297 -1999.477,125.828 -2445.993,1200.81c-23.833,57.378 -85.305,227.454 -85.284,227.841c0.263,4.777 7.694,9.635 16.619,-11.114c92.431,-214.894 266.913,-440.949 444.488,-603.613c11.853,-10.858 108.36,-99.261 152.74,-130.56c2.699,-1.903 18.367,-0.878 2.614,13.214c-20.025,17.913 -120.931,108.176 -223.052,251.076c-537.211,751.726 -426.114,1350.016 -372.87,1596.303c34.129,157.871 155.722,458.339 273.238,615.528c7.802,10.436 15.883,-23.093 16.451,-25.449c62.025,-257.347 -120.424,-420.976 -119.604,-423.322c2.731,-7.815 43.484,1.766 48.498,2.666c502.454,90.268 1187.327,624.447 1425.56,1341.453c34.474,103.754 33.259,107.078 29.967,116.086c-5.181,-4.893 -313.269,-499.867 -948.258,-756.563c-139.627,-56.445 -430.695,-147.218 -527.417,-87.611c-70.17,43.243 -133.858,101.23 -144.645,111.052c-13.872,12.631 -16.573,21.915 -28.509,7.754c-146.574,-173.906 -761.154,-1094.279 -308.88,-2234.637c144.943,-365.458 376.523,-616.855 419.034,-663.005c248.926,-270.229 399.082,-343.284 412.799,-356.684c-0.544,-1.366 -1.089,-2.732 -1.633,-4.099Z" style="fill:#0000FF;"/><path d="M2924.138,4424.39c-1.716,-9.868 -3.323,-9.49 -0.95,-17.76c191.947,-669.11 630.199,-1025.942 857.844,-1183.691c299.272,-207.384 554.366,-239.784 620.387,-252.697c16.228,-3.174 24.751,-13.984 25.11,2.678c0.016,0.737 -58.78,43.604 -104.554,134.306c-15.249,30.217 -103.344,204.778 14.965,422.817c4.3,7.924 28.511,29.005 -8.309,28.604c-384.724,-4.191 -1059.168,333.896 -1394.795,852.628c-9.031,13.958 -9.566,12.976 -9.698,13.116Z" style="fill:#0000FF;"/><path d="M5101.207,2477.64c-22.31,165.245 -26.086,225.067 -98.384,457.253c-131.324,421.744 -420.371,768.985 -434.198,770.778c-11.453,1.485 -44.7,-43.875 -126.901,-103.952c-2.084,-1.523 -24.252,-17.725 -19.023,-26.065c47.391,-75.591 718.199,-831.486 342.276,-1973.524c-1.112,-3.379 -12.684,-38.533 -6.999,-43.91c12.506,-11.832 203.133,-46.275 212.992,-23.171c161.411,378.249 140.649,763.979 137.026,831.282c-2.501,46.469 -1.732,46.142 -6.788,111.31Z" style="fill:#FFA500;"/><path d="M3029.808,2256.292c-36.999,0.801 -310.326,6.717 -462.495,-9.353c-0.073,-0.008 -82.185,-16.721 -161.105,-98.707c-115.746,-120.243 -154.27,-302.872 -165.961,-362.002c-0.912,-4.612 -13.142,-66.469 2.722,-58.701c13.463,6.593 113.047,69.35 290.398,115.901c426.998,112.078 813.821,-22.286 963.477,-109.043c14.602,-8.465 24.243,-9.639 20.821,7.321c-9.835,48.743 -33.26,207.798 -123.452,341.834c-74.416,110.59 -150.474,140.222 -207.655,162.058c-13.431,5.129 -81.996,7.5 -156.749,10.694Z" style="fill:#fcfcfc;"/><path d="M1725.62,4058.808c464.274,66.18 729.807,177.578 1017.679,400.736c1.311,1.016 148.621,131.266 124.659,136.245c-42.271,8.784 -666.049,-64.713 -1146.302,-386.949c-67.617,-45.369 -214.563,-153.741 -203.066,-165.206c7.304,-7.283 190.527,13.319 207.03,15.174Z" style="fill:#0000FF;"/><path d="M4094.187,4058.841c53.358,-7.245 52.89,-6.256 106.124,-10.291c7.576,-0.574 92.058,-6.979 94.882,-4.228c5.857,5.703 2.451,9.495 -74.113,70.35c-401.569,319.175 -914.033,447.48 -1196.935,475.542c-49.208,4.881 -91.355,14.019 -68.103,-11.741c83.662,-92.684 396.846,-424.234 1138.145,-519.632Z" style="fill:#0000FF;"/><path d="M1157.13,3984.406c-34.437,15.683 -10.046,-12.466 -8.708,-14.143c21.271,-26.666 167.861,-210.437 315.813,-286.465c11.101,-5.705 497.76,-41.339 1071.57,441.672c137.491,115.735 218.725,223.705 269.96,281.92c1.394,1.584 37.356,42.445 7.315,25.336c-10.214,-5.817 -10.366,-16.004 -68.052,-64.51c-3.404,-2.269 -6.809,-4.538 -10.213,-6.807c-6.12,-4.843 -11.239,-8.933 -12.214,-9.712c-26.701,-27.297 -128.802,-131.678 -396.53,-265.673c-729.148,-364.932 -1128.718,-137.429 -1168.941,-101.619Z" style="fill:#0000FF;"/><path d="M4657.255,3983.927c-47.003,-50.051 -224.791,-84.837 -245.272,-88.845c-448.685,-87.791 -992.977,230.028 -1046,263.506c-138.931,87.717 -207.062,130.758 -263.177,193.037c-84.367,70.851 -80.204,77.393 -89.673,78.517c-18.952,2.251 13.029,-28.488 22.236,-40.166c373.235,-473.416 929.856,-717.175 1310.126,-709.761c31.14,0.607 213.942,149.227 281.692,237.85c28.016,36.648 74.348,84.391 30.069,65.862Z" style="fill:#0000FF;"/><path d="M4122.545,643.664c-312.248,-265.014 -611.033,-336.255 -629.517,-341.523c-249.051,-70.98 106.932,12.51 116.042,14.646c466.222,109.345 877.848,393.384 1123.901,746.917c15.532,22.317 -4.667,19.093 -40.229,40.017c-100.431,59.09 -93.975,69.606 -108.007,73.556c-22.648,6.376 -98.714,-223.273 -462.189,-533.613Z" style="fill:#FFA500;"/><path d="M1157.13,3984.406c40.223,-35.811 439.793,-263.313 1168.941,101.619c267.727,133.995 369.829,238.376 396.53,265.673c-8.695,-2.754 -186.173,-124.375 -357.249,-198.923c-702.559,-306.148 -1117.303,-173.471 -1208.222,-168.369Z" style="fill:#FFA500;"/><path d="M4657.255,3983.927c-84.382,-2.002 -467.926,-131.016 -1130.332,140.776c-232.379,95.348 -354.399,186.269 -424.117,226.921c56.115,-62.279 124.245,-105.319 263.177,-193.037c53.024,-33.478 597.316,-351.296 1046,-263.506c20.481,4.007 198.269,38.794 245.272,88.845Z" style="fill:#FFA500;"/><path d="M2672.948,2059.842c4.639,5.294 57.045,65.103 50.126,72.319c-1.947,2.031 -135.504,2.282 -155.448,-2.531c-114.247,-27.569 -75.409,-82.76 -192.403,-169.013c-22.808,-16.815 122.678,-15.447 229.405,45.958c37.804,21.751 35.407,24.514 68.32,53.267Z" style="fill:#0000FF;"/><path d="M3264.379,1961.392c44.269,-5.538 43.634,-6.296 88.686,-9.215c1.625,-0.105 33.413,-2.165 18.532,8.42c-134.085,95.377 -95.277,172.014 -241.476,172.731c-90.508,0.444 -118.271,3.246 -109.118,-10.952c89.65,-139.059 235.802,-159.093 243.375,-160.984Z" style="fill:#0000FF;"/><path d="M4818.227,3614.365c-48.916,67.424 -136.127,176.228 -149.719,174.311c-2.748,-0.388 -30.499,-25.639 -29.833,-34.461c0.905,-11.978 236.512,-242.691 377.373,-550.545c12.015,-26.259 16.783,-23.866 18.056,-21.98c4.038,5.982 -83.765,231.344 -167.224,359.353c-24.262,37.213 -24.053,36.814 -48.654,73.323Z" style="fill:#FFA500;"/><path d="M2734.815,4361.409c3.404,2.269 6.809,4.538 10.213,6.807c-3.404,-2.269 -6.809,-4.538 -10.213,-6.807Z" style="fill:#FFA500;"/></g></svg>