<svg xmlns="http://www.w3.org/2000/svg" viewBox="488.22 711.76 157.26 57.10" width="100%" height="100%">
  <path d="m628.13 760.24c-0.63994-2.9136-0.85156-3.0798-1.9714-1.5483-1.0236 1.3998-1.7599 1.5236-3.9997 0.67197-1.8561-0.70569-3.1404-0.71569-3.9655-0.0309-1.4748 1.224-2.5364 0.34169-2.5364-2.1079 0-2.2898-5.4948-3.9214-8.9481-2.6571-3.9019 1.4286-17.765 2.0682-18.515 0.85425-0.36001-0.5825-2.0076-1.0591-3.6613-1.0591s-3.7646-0.36366-4.691-0.80814c-0.92634-0.44448-3.2593-0.50372-5.1843-0.13164-1.925 0.37207-2.7125 0.79199-1.75 0.93314s2.1625 0.31289 2.6667 0.38164c2.4523 0.3344 2.0583 1.6269-0.5 1.6403-2.2812 0.012-2.5899 0.23341-1.4167 1.0164 1.0346 0.69045-0.82699 0.83004-6 0.44991-13.627-1.0014-32.375-1.2345-35.155-0.43716-1.7295 0.49601-2.867 0.38997-3.0931-0.28835-0.46115-1.3834-4.752-2.0605-4.752-0.74979 0 0.54655-0.9 0.99373-2 0.99373s-2 0.45-2 1c0 1.3384-2.7384 1.2848-3.1875-0.0624-0.53805-1.6141-5.8125 0.6886-5.8125 2.5376 0 0.83861-0.675 1.5248-1.5 1.5248s-1.5-0.43588-1.5-0.96862c0-0.53273-0.62137-0.73017-1.3808-0.43874-0.88466 0.33947-1.7643-0.57012-2.448-2.5314-0.58694-1.6837-1.6531-3.0643-2.3692-3.0681-2.4431-0.0128-5.9075-6.6155-6.5041-12.396-0.31773-3.0785-0.95349-5.5973-1.4128-5.5973-1.3688 0 0.29543-6.2914 2.4339-9.2014 2.2556-3.0694 4.33-4.1336 6.0206-3.0887 0.63754 0.39402 2.3106 0.59562 3.7179 0.44801 1.8542-0.1945 3.1967 0.56406 4.8758 2.755 1.8475 2.4107 2.6824 2.8279 4.1194 2.0588 2.0744-1.1102 4.9473-0.30031 4.9473 1.3947 0 0.63386 0.93526 1.7366 2.0784 2.4504 1.6046 1.0021 2.4024 1.029 3.5 0.11811 0.97446-0.80874 1.8148-0.86047 2.6716-0.16447 1.3625 1.1068 20.588 1.0654 22.39-0.0482 0.6057-0.37434 1.1155-2.1525 1.1329-3.9515 0.0599-6.1958-0.0531-6.0454 3.9768-5.2975 2.0625 0.38275 4.5052 1.3734 5.4283 2.2014 0.98803 0.88629 2.4999 1.2448 3.6758 0.87155 1.3013-0.41302 2.3117-0.0724 2.8992 0.97742 1.0797 1.9293 7.2006 3.4444 13.412 3.3197 2.4776-0.0497 5.4463 0.41355 6.5973 1.0295 1.1509 0.61596 2.8002 0.8484 3.665 0.51653 0.86484-0.33188 1.5724-0.15775 1.5724 0.38695 0 1.2397 3.7192 2.2686 5.5964 1.5482 0.77195-0.29622 1.4036-1.7842 1.4036-3.3066 0-4.9507 1.2492-9.1769 2.8922-9.7848 0.8843-0.32717 2.5825-1.7088 3.7738-3.0702 1.9946-2.2795 2.4106-2.374 5.2589-1.1942 1.7011 0.70462 4.2492 1.2811 5.6624 1.2811 1.7343 0 2.9212 0.77196 3.6516 2.375 0.59516 1.3062 1.4036 2.375 1.7966 2.375 0.39296 0 0.97278 1.2915 1.2885 2.87 0.35161 1.758 1.3687 3.0778 2.625 3.4064 1.3988 0.36581 2.051 1.356 2.051 3.114 0 3.2018 4.9203 13.53 7.8335 16.443 1.1916 1.1916 2.1665 2.988 2.1665 3.9922 0 2.2881-4.4808 6.6132-5.926 5.7201-0.59072-0.36506-1.074 0.0378-1.074 0.89525 0 0.85746-0.1882 1.559-0.41821 1.559-0.23002 0-1.0873 0.25675-1.905 0.57055-1.06 0.40675-1.6927-0.36656-2.2037-2.6935z" fill="currentColor" fill-rule="evenodd" />
</svg>